<svg width="40" height="40" viewBox="0 0 42 42" fill="none" xmlns="http://www.w3.org/2000/svg">
<path d="M40.0404 21.8266C40.0404 21.1589 39.9691 20.499 39.8242 19.8469C39.8175 19.7728 39.8169 19.6981 39.8029 19.6251C39.367 17.3258 38.469 15.222 37.1189 13.3125C36.3612 12.242 35.5008 11.2626 34.4849 10.4274C34.418 10.3634 34.3546 10.2955 34.2838 10.237C31.4718 7.91867 28.2486 6.6657 24.6043 6.51462C23.5861 6.4725 22.5701 6.51743 21.5654 6.71175C21.4817 6.71849 21.3969 6.71849 21.3149 6.73366C19.1695 7.13858 17.1538 7.88105 15.3325 9.09976C11.4321 11.709 9.01877 15.3197 8.22688 19.948C7.69335 23.0667 8.10333 26.0921 9.42482 28.9879C12.4216 35.5543 19.616 39.8889 27.4085 38.0917C33.6559 36.6506 37.6754 32.6811 39.5305 26.5454C39.9944 25.011 40.1196 23.4267 40.0404 21.8266ZM38.3595 26.2084C36.6617 31.6741 33.1443 35.4077 27.5562 36.768C21.3289 38.2832 16.1777 36.2496 12.234 31.2377C10.1903 28.6408 9.15749 25.6406 9.21814 22.3225C9.29396 18.1974 10.9041 14.7132 13.8571 11.8624C15.8576 9.93096 18.2366 8.65945 20.9622 8.05852C20.9976 8.05065 21.0301 8.03156 21.0644 8.01752C21.0801 8.03212 21.0964 8.04335 21.1133 8.05178C21.1284 8.03268 21.1447 8.0164 21.1621 8.00404C21.8327 7.91306 22.5005 7.79624 23.1778 7.75974C27.0299 7.55531 30.4311 8.71224 33.4156 11.1396C34.3776 11.9219 35.233 12.816 35.9518 13.8134C37.4334 15.8712 38.4494 18.1368 38.7605 20.6849C38.8728 21.6014 38.8874 22.5186 38.8605 23.4385H38.8588C38.8588 23.4385 38.8537 23.4413 38.8509 23.4435C38.8537 23.4475 38.8565 23.4514 38.8599 23.4548C38.7582 24.3848 38.6381 25.3126 38.3595 26.2084Z" fill="white"/>
<path d="M36.4876 22.3248C32.4041 18.2733 28.3183 14.224 24.2387 10.1685C24.0814 10.0124 24.0039 9.98544 23.8298 10.1595C20.8459 13.1412 17.8542 16.115 14.8636 19.0904C13.7836 20.1648 12.7019 21.2381 11.6208 22.3119C11.4921 22.3933 11.3866 22.4781 11.5747 22.6084C11.7404 22.7662 11.9061 22.9235 12.0717 23.0813C12.147 23.1633 12.2189 23.2487 12.2975 23.3273C16.1289 27.1384 19.9631 30.9479 23.7894 34.7652C23.9781 34.9534 24.0691 34.991 24.2808 34.7787C26.4722 32.5805 28.6788 30.397 30.8787 28.2066C31.7857 27.3036 32.6854 26.3937 33.5885 25.4867C34.5759 24.5179 35.5615 23.5474 36.5522 22.5826C36.6977 22.4405 36.5556 22.3927 36.4876 22.3248ZM24.6436 32.4823V29.9022C24.6425 28.9761 24.6425 28.0494 24.6414 27.1233V27.1025C24.6408 26.6234 24.6408 26.1449 24.6397 25.6664V25.6462C24.6391 25.1144 24.6385 24.5825 24.6374 24.0507V24.045C24.6374 23.8311 24.6369 23.6176 24.6363 23.4037V23.3806C24.6363 23.2397 24.6425 23.1549 24.8463 23.1554C26.8418 23.1616 28.8372 23.1627 30.8321 23.1633H30.8489C31.8402 23.1633 32.8315 23.1633 33.8227 23.1639C33.8575 23.1639 33.8924 23.17 33.9901 23.1785C30.8894 26.3089 27.7994 29.3799 24.6436 32.4823ZM24.6459 12.5582C24.7705 12.5958 24.8362 12.6874 24.9115 12.761C25.9342 13.7629 26.9552 14.7671 27.9774 15.7696C28.0437 15.8347 28.1155 15.8937 28.1846 15.9555C28.2178 15.988 28.2509 16.02 28.284 16.0521C28.4037 16.2026 28.5379 16.339 28.6923 16.4542C28.7109 16.5036 28.7446 16.5379 28.7945 16.5553C28.8198 16.612 28.8603 16.653 28.9175 16.6766C29.3758 17.1416 29.8296 17.6106 30.2924 18.0711C31.2915 19.064 32.2951 20.053 33.2965 21.0432C33.3184 21.0993 33.3571 21.1392 33.4133 21.1611C33.4318 21.2139 33.4672 21.2499 33.52 21.2684C33.5419 21.3251 33.5807 21.3644 33.6374 21.3863C33.6565 21.4386 33.6919 21.4739 33.7441 21.493C33.8059 21.5711 33.8677 21.6486 33.9283 21.725C33.8688 21.7997 33.798 21.7677 33.7385 21.7677C30.8096 21.7682 27.8802 21.7643 24.9514 21.7705C24.72 21.771 24.6357 21.7385 24.6369 21.4734C24.6414 19.9896 24.6419 18.5052 24.6408 17.0214V17.0057C24.6447 16.8018 24.6492 16.6002 24.6593 16.3963C24.6683 16.2059 24.6537 16.0133 24.6402 15.8201V15.8049C24.6391 14.7744 24.6374 13.7444 24.6369 12.7138C24.6369 12.6689 24.6419 12.6234 24.6459 12.5582ZM23.3058 12.6621C23.3406 12.7267 23.353 12.8008 23.3496 12.8896C23.3479 12.9328 23.3451 12.9912 23.3592 13.0362V13.6601C23.3171 13.7286 23.3491 13.8269 23.3491 13.9011C23.3429 16.4463 23.344 18.9916 23.344 21.5368C23.344 21.5784 23.3463 21.6194 23.3513 21.6587C23.3339 21.7306 23.2834 21.7733 23.1379 21.7727C20.2107 21.7637 17.2836 21.7665 14.3558 21.7665H14.143C17.2005 18.6962 20.2141 15.6853 23.3058 12.6621ZM23.3603 32.2801C23.3603 32.3048 23.3519 32.3289 23.339 32.4036C20.2253 29.3546 17.1769 26.2915 14.0902 23.161H15.7167C18.1765 23.161 20.637 23.1622 23.0975 23.1594C23.2626 23.1594 23.367 23.1526 23.3665 23.3834C23.3575 26.3488 23.3609 29.3142 23.3603 32.2801Z" fill="white"/>
<path d="M19.58 32.0403C18.9724 32.0425 18.3641 32.0464 17.7565 32.033C15.9042 31.9908 14.5743 30.6469 14.5513 28.7975C14.544 28.1898 14.549 27.5821 14.5468 26.9739C14.5468 26.8829 14.5648 26.7863 14.4873 26.7105C14.129 26.3612 13.7723 26.0113 13.373 25.6204C13.4224 26.8037 13.3449 27.9258 13.4202 29.0474C13.5769 31.3731 15.3263 33.0939 17.6537 33.1663C18.7095 33.1989 19.7671 33.1759 20.824 33.177C20.8656 33.177 20.9189 33.1927 20.9459 33.1242C20.61 32.8069 20.2691 32.4896 19.9344 32.1655C19.8316 32.0655 19.7182 32.0397 19.58 32.0403Z" fill="white"/>
<path d="M28.5154 12.9643C29.1051 12.9575 29.6943 12.9547 30.2834 12.9665C31.9671 12.9991 33.3611 14.2616 33.5442 15.9369C33.6172 16.6069 33.5576 17.2831 33.5678 17.956C33.5689 18.0481 33.5369 18.1497 33.6003 18.2289C33.9328 18.6389 34.3203 18.9938 34.7185 19.3521C34.7039 18.116 34.8303 16.8911 34.6455 15.6763C34.3473 13.7118 32.8214 12.1454 30.9433 11.8978C29.6898 11.7321 28.4267 11.873 27.1681 11.8202C27.491 12.1623 27.7977 12.4779 28.0931 12.8031C28.2121 12.9339 28.3464 12.9665 28.5154 12.9643Z" fill="white"/>
<path d="M14.4002 18.3261C14.5131 18.2098 14.5485 18.0834 14.5457 17.9239C14.5361 17.391 14.5356 16.858 14.5395 16.325C14.5547 14.4133 15.9492 13.0013 17.8626 12.966C18.4422 12.9558 19.0218 12.9676 19.6014 12.9671C19.6845 12.9671 19.8002 12.9873 19.8457 12.9429C20.2107 12.5807 20.5629 12.2061 20.9111 11.8422C19.8086 11.8422 18.6949 11.795 17.5863 11.8523C15.3915 11.9663 13.6583 13.6579 13.4303 15.8459C13.3101 17.0023 13.409 18.1626 13.4252 19.3555C13.7499 19.0118 14.0711 18.6653 14.4002 18.3261Z" fill="white"/>
<path d="M34.7118 27.5232C34.7213 26.9031 34.714 26.2831 34.714 25.5929C34.358 25.9596 34.0232 26.25 33.7424 26.5948C33.5801 26.6925 33.5414 26.8397 33.5408 27.0228C33.5397 27.7804 33.6127 28.5436 33.5099 29.2945C33.2976 30.8463 32.0373 31.965 30.4552 32.0302C29.792 32.0577 29.127 32.0358 28.4626 32.0369C28.3615 32.0375 28.2599 32.0195 28.1751 32.1077C27.8353 32.4598 27.491 32.808 27.1164 33.1905C28.3868 33.159 29.619 33.2388 30.8495 33.1365C31.0163 33.1231 31.1831 33.0882 31.3465 33.0512C33.1825 32.6328 34.6343 30.9153 34.6562 29.1389C34.6668 29.1131 34.6781 29.0884 34.6781 29.0592V29.012C34.7539 28.5178 34.7045 28.0191 34.7118 27.5232Z" fill="white"/>
</svg>